<?xml version="1.0" encoding="UTF-8"?>
<!DOCTYPE svg  PUBLIC '-//W3C//DTD SVG 1.1//EN'  'http://www.w3.org/Graphics/SVG/1.1/DTD/svg11.dtd'>
<svg width="269pt" height="269pt" version="1.1" viewBox="0 0 269 269" xmlns="http://www.w3.org/2000/svg">
<path d="m0 0h269v269h-269v-269z" fill="#fff" stroke="#fff" stroke-width=".09375"/>
<path d="m114.4 38.5c18.6-4 38.7-2.2 56 6.1 19.4 9 34.9 25.2 45.2 43.8 7.5 13.9 12.4 29.2 14.1 45 1.4 9.8 0.8 19.7 0.4 29.5 1.8-0.2 3.7-0.5 5.5-0.7-1.9 3.3-3.6 6.9-4 10.8-0.6 5.6-2.2 11.1-2.2 16.8-0.8 0.3-1.6 0.5-2.4 0.8l0.4-2.4c1.7-8.4 2.4-16.9 5.4-25-1.7 0.7-3.5 1.5-5.2 2.3-1.6-6.1 0-12.3-0.2-18.5 0.2-24-7.1-47.9-20.7-67.7-6.8-10.3-15.4-19.4-25.5-26.5-14.8-9.8-32.5-15.2-50.3-14.5-16.8 0.2-33.1 6.4-46.8 15.8-23.2 18-38.4 45.6-42.5 74.7-2.1 11.9-1.7 24.2 0 36.2h-2.6c-1.4-0.5-2.8-1-4.2-1.5 2.8 9 3.5 18.4 6.1 27.4-0.3-0.1-1.1-0.1-1.4-0.2l-0.8-0.1c-0.3-1.6-0.6-3.3-1-4.9-1.9-7.8-1.8-16.1-5.4-23.4 1.7 0.2 3.4 0.3 5.1 0.5 0-4.6-0.7-9.2-0.7-13.8 0.2-24.5 6.9-49.2 20.7-69.6 13.1-19.9 33.4-35.8 57-40.9z" fill="#030303" stroke="#030303" stroke-width=".09375"/>
<path d="m84.1 54.1c13.7-9.4 30-15.6 46.8-15.8 17.8-0.7 35.5 4.7 50.3 14.5 10.1 7.1 18.7 16.2 25.5 26.5 13.6 19.8 20.9 43.7 20.7 67.7 0.2 6.2-1.4 12.4 0.2 18.5-0.4 0.1-1.2 0.5-1.5 0.7l-4.2 0.9c0.7-8.7 1.9-17.4 1.2-26.1-1.4-28-11.5-56.4-31.5-76.6-9.4-8.6-20.4-15.5-32.5-19.5-18.4-5.9-39.1-5.4-56.9 2.3-15.3 6.4-28.6 17.4-37.8 31.1-12.8 18.8-18.8 41.5-20.3 63.9-0.9-4.5-1.9-8.9-2.5-13.4 4.1-29.1 19.3-56.7 42.5-74.7z" fill="#c4c4c4" stroke="#c4c4c4" stroke-width=".09375"/>
<path d="m102.2 47.2c17.8-7.7 38.5-8.2 56.9-2.3 12.1 4 23.1 10.9 32.5 19.5 20 20.2 30.1 48.6 31.5 76.6 0.7 8.7-0.5 17.4-1.2 26.1l4.2-0.9c-4.9 3.3-9.4 7-13.6 11.1 0-0.4-0.1-1.2-0.1-1.5 1.8-6.8 4.2-13.6 5-20.6 2.3-18 1.5-36.7-4.8-53.8-6.4-18-17.9-34.3-33.6-45.4-10.6-6.6-22.5-11.7-35-12.9-13-1.3-26.4-0.6-38.6 4.2-6.2 2.5-12.3 5.4-17.9 9.2-17.6 13-29.9 32.5-35.3 53.7-3.9 14.1-4 28.9-2.4 43.4 1 6.4 2.6 12.7 4.6 18.9 1.6 5.2 5.3 9.4 7.4 14.4 4.4 12.5 14.9 21.4 25.1 29.2-0.1 1.1-0.3 2.1-0.4 3.2-0.2-0.3-0.7-0.7-0.9-0.9-1.6-1.6-3.1-3.1-4.8-4.5l-0.6-0.4c-1.2-0.9-2.3-1.8-3.5-2.7-3.1-3-5.5-6.8-9.1-9.4-3.7-2.8-8-4.6-12.4-6.1-0.1-1.7-0.3-3.4-0.7-5.1 0.8-0.7 1.5-1.3 2.3-1.9l-0.3 6.9c2.3 0.8 4.6 1.6 7 2.4-1.1-5.7-2.6-11.4-5.8-16.2-3.3-4.8-7.6-8.8-12.4-12.2 0.4-3.4 0.4-6.8-0.1-10.2-0.8-5.5-0.9-11.2-1.1-16.8 1.5-22.4 7.5-45.1 20.3-63.9 9.2-13.7 22.5-24.7 37.8-31.1z" fill="#232323" stroke="#232323" stroke-width=".09375"/>
<path d="m105.4 47.3c12.2-4.8 25.6-5.5 38.6-4.2 12.5 1.2 24.4 6.3 35 12.9 15.7 11.1 27.2 27.4 33.6 45.4 6.3 17.1 7.1 35.8 4.8 53.8-0.8 7-3.2 13.8-5 20.6-1.7 2.5-3.5 4.8-5 7.5-2.5 4.3-3.4 9.5-6.5 13.5-5.1 6.6-10.9 12.7-17.8 17.4-2 1.2-2.5 3.5-2.9 5.6h-9.1c-0.3-0.9-0.7-1.8-1-2.6 16.5-9 29.9-23.6 36.9-41 7.7-16.6 9.3-35.5 6.9-53.5-0.7-13.6-5.5-26.9-12.7-38.4-9.5-14.1-22.2-26.8-38.3-33.2-19.7-8.2-42.9-7.9-62.2 1.6-11.5 5.3-20.7 14.2-28.9 23.7-5.4 6.1-9.2 13.6-12.2 21.2-4 9.9-6.2 20.5-6.6 31.1-1.5 16.5 1.1 33.5 8 48.6 5.9 13.5 15.4 25.6 27.5 34.2 3.1 2.4 7.9 3.6 8.7 8-3.5 0.3-7.2 0.6-10.7-0.2 0.1-1.1 0.3-2.1 0.4-3.2-10.2-7.8-20.7-16.7-25.1-29.2-2.1-5-5.8-9.2-7.4-14.4-2-6.2-3.6-12.5-4.6-18.9-1.6-14.5-1.5-29.3 2.4-43.4 5.4-21.2 17.7-40.7 35.3-53.7 5.6-3.8 11.7-6.7 17.9-9.2z" fill="#f8f8f8" stroke="#f8f8f8" stroke-width=".09375"/>
<path d="m100.7 52.7c19.3-9.5 42.5-9.8 62.2-1.6 16.1 6.4 28.8 19.1 38.3 33.2-0.7 0.4-1.5 0.8-2.3 1.2-8.8-15.3-23.2-27.3-39.6-33.8-14.2-5.4-30.1-6.4-44.7-2.2-16.1 4.5-30.6 14.6-40.5 28-0.8-0.4-1.5-0.8-2.3-1.1 8.2-9.5 17.4-18.4 28.9-23.7z" fill="#1d1d1d" stroke="#1d1d1d" stroke-width=".09375"/>
<path d="m114.6 49.5c14.6-4.2 30.5-3.2 44.7 2.2 16.4 6.5 30.8 18.5 39.6 33.8 4.9 9.5 9.7 19.3 11.7 29.9 2 9.8 2 19.9 1.6 29.8-1.1 6.6-2.7 13.1-4.5 19.5-3.9 9.4-8.2 18.6-14.5 26.6-3.2 4.5-7.3 8.2-11.2 12-2.4-1.5-4.7-3-7.1-4.6 2.6-2.8 6-4.7 8.1-7.9 0.9-4.7-1.6-9.5-0.3-14.2 2.2-3.8 6.4-6.8 6-11.7-0.6-6.2-1.8-12.4-3-18.5-2.4-7.2-4.6-14.5-6.5-21.9-0.1-7.1 1.6-14.4-0.1-21.4-1.4-5.7-1.7-11.7-4.1-17.1-5.3-11.2-15.6-20.7-28.1-22.8-11.7-1.6-24.1-0.5-34.9 4.7-2.9 1.3-5.4 3.4-7.8 5.5-4.8 3.6-8.8 8.2-10.9 13.9-2.5 7.5-5.2 14.9-6.7 22.6-0.4 3.6-3.4 5.7-5.7 8-3.9 3.7-7 8.2-7.9 13.5-0.7 4.4 0.1 8.9-0.7 13.2-1.2 4.2-3.6 8-4.5 12.4-1.7 5.7-0.8 11.6 0.9 17.2-0.1 1.4-0.2 2.8-0.5 4.2h-2c-2-4.2-4.2-8.4-6.1-12.6-2.2-8.7-4.8-17.5-5.2-26.5 0.1-5.1 0.3-10.2 0.5-15.2 1.5-17 9.2-32.7 18.7-46.6 9.9-13.4 24.4-23.5 40.5-28z" fill="#fff" stroke="#fff" stroke-width=".09375"/>
<path d="m112 67.9c10.8-5.2 23.2-6.3 34.9-4.7 12.5 2.1 22.8 11.6 28.1 22.8 2.4 5.4 2.7 11.4 4.1 17.1 1.7 7 0 14.3 0.1 21.4-0.5 1.6-1 3.3-1.5 4.9l-0.2-0.8c-0.1-0.5-0.4-1.7-0.5-2.3-0.6-7.1 0.9-14.3 0-21.5-0.6-8.4-1.6-17.3-6.8-24.2-2-3-4.4-5.6-7.2-7.9-5.7-4.4-12.5-7.9-19.9-8-5 0.4-10 0.5-15 1.4-9.3 1.9-16.8 9.6-19.1 18.8-1.2 4.2-2.9 8.2-4.8 12.1 0.4 0.2 1 0.5 1.3 0.7-0.1 0.3-0.2 1.1-0.3 1.4-1.3 0.4-2.6 0.7-3.8 1.2-3.8-2.2-4.8 3.2-5 5.8-1.6 1.4-3.9 1.2-5.8 2.1-0.9 4.4-2.3 8.7-4.8 12.4-0.3 0.3-0.8 0.9-1 1.2-0.6-0.6-1.1-1.2-1.7-1.7-0.8-0.7-1.5-1.4-2.2-2.2 2.3-2.3 5.3-4.4 5.7-8 1.5-7.7 4.2-15.1 6.7-22.6 2.1-5.7 6.1-10.3 10.9-13.9-0.6 3.5-3.7 5.5-5.8 8.1-2 2.4-2.7 5.5-3.6 8.4 2-1.9 3.9-3.9 5.8-6-0.5 3.8-0.6 7.7-0.4 11.5 1.9-2.6 3.6-5.4 4.1-8.6 0.5-3.3 2.2-6.4 2.7-9.8 1.8-2.1 3.9-3.9 6-5.7-1.4 0.2-2.7 0.3-4.1 0.5 1-1.3 2-2.6 3.1-3.9z" fill="#454545" stroke="#454545" stroke-width=".09375"/>
<path d="m128.1 66.1c5-0.9 10-1 15-1.4-0.3 0.6-0.9 1.8-1.3 2.4 2.6 1.5 5.2 3 7.9 4.5-1.1 5.9-1.8 11.8-2.2 17.9-4.4 2.8-6.9 7.5-9.6 11.8-2.8 0.1-5.5 0.7-8.2 1.7-3.6 1.5-6.7 4-9.7 6.4 1.3 0.1 2.7 0.1 4 0.1-0.5 1.1-1.1 2.2-1.6 3.3h3.9c-1.1 1.7-2.2 3.5-3.2 5.4 4.8-2.8 7.5-9.5 13.8-9 1.3 0.8 2.6 1.7 4 2.5-0.6 0.1-1.8 0.3-2.4 0.4-4.4 0.1-8.3 2.3-11.3 5.5 0.8 0.3 1.7 0.7 2.6 1 0.7-0.4 1.4-0.7 2.2-1 2.5-0.1 5-0.7 7.1-2.2-0.3 1.3-0.6 2.5-0.9 3.8l-4.8 1.5c-0.1 0.4-0.2 1.3-0.2 1.8 2.9 0.2 5.9 0.5 8.9 0.9 1-2.2 1.8-4.5 1.3-6.9 0.6-0.9 1.2-1.8 1.8-2.6 1.6-2 3-4.4 5.3-5.4 3.6 0.6 5.3 4.5 6.4 7.5-0.5 4.9-0.4 9.9-0.4 14.8-0.1 2.6-3.4 1.8-5.1 2.2-1.3-4.7-1.9-9.5-2.2-14.3-1.5 4.7-2.3 9.9-6 13.5-4.7 4.9-6 12.3-11.6 16.3-3.2 2.3-6.6 4.7-10.5 5.1-1.7-1-3.1-2.4-4.5-3.6-2.4-0.1-4.8-0.6-7-1.5-1.8-4.7 1-9.1 2.6-13.3-1-1.1-2-2.2-2.9-3.3-0.9-2.5-1.3-5.2-1.3-7.9l0.1-0.9c0.6-8.3 2.2-16.6 1.7-25-0.8 0.1-1.7 0.3-2.6 0.5 1.8-4.4 1.9-9.1 1.8-13.7 2.3-9.2 9.8-16.9 19.1-18.8z" fill="#f4f4f4" stroke="#f4f4f4" stroke-width=".09375"/>
<path d="m143.1 64.7c7.4 0.1 14.2 3.6 19.9 8-2.9 4-4.8 9.1-4 14.1 0.6 2 1.9 3.6 2.9 5.3-0.3 0.9-0.6 1.7-0.9 2.5 0.5 0.8 1.1 1.6 1.6 2.4-3.7 2.5-5.9 6.5-5.8 11-0.1 2 0 4 0.2 5.9 0 0.5-0.1 1.6-0.1 2.1-1.1-3-2.8-6.9-6.4-7.5-2.3 1-3.7 3.4-5.3 5.4-0.9-1.1-1.8-2.2-2.7-3.2 1.2-1.1 2.4-2.1 3.5-3.1 0.6-0.7 1.2-1.4 1.7-2.2 0.4-0.5 1-1.6 1.4-2.1-3.7-0.8-7.4-1.6-11.2-2 2.7-4.3 5.2-9 9.6-11.8 0.4-6.1 1.1-12 2.2-17.9-2.7-1.5-5.3-3-7.9-4.5 0.4-0.6 1-1.8 1.3-2.4z" fill="#d8d8d8" stroke="#d8d8d8" stroke-width=".09375"/>
<path d="m104.2 73.4c2.4-2.1 4.9-4.2 7.8-5.5-1.1 1.3-2.1 2.6-3.1 3.9 1.4-0.2 2.7-0.3 4.1-0.5-2.1 1.8-4.2 3.6-6 5.7-0.5 3.4-2.2 6.5-2.7 9.8-0.5 3.2-2.2 6-4.1 8.6-0.2-3.8-0.1-7.7 0.4-11.5-1.9 2.1-3.8 4.1-5.8 6 0.9-2.9 1.6-6 3.6-8.4 2.1-2.6 5.2-4.6 5.8-8.1z" fill="#a8a8a8" stroke="#a8a8a8" stroke-width=".09375"/>
<path d="m163 72.7c2.8 2.3 5.2 4.9 7.2 7.9-2.1 2.3-4 4.8-5.9 7.3 1.5 0.8 3.1 1.5 4.6 2.3-1.7 1.1-3.3 2.3-4.9 3.5 3.1 0.9 6.2 1.6 9.3 2.4-2.7 2-5.3 4.2-8.6 5.4-2.1 0.8-4.7 1.4-6.1 3.5l-1.8 3c-0.1-4.5 2.1-8.5 5.8-11-0.5-0.8-1.1-1.6-1.6-2.4 0.3-0.8 0.6-1.6 0.9-2.5-1-1.7-2.3-3.3-2.9-5.3-0.8-5 1.1-10.1 4-14.1z" fill="#b4b4b4" stroke="#b4b4b4" stroke-width=".09375"/>
<path d="m59.6 97.6c3-7.6 6.8-15.1 12.2-21.2 0.8 0.3 1.5 0.7 2.3 1.1-9.5 13.9-17.2 29.6-18.7 46.6-0.2 5-0.4 10.1-0.5 15.2-0.5-3.6-1.3-7.1-1.9-10.6 0.4-10.6 2.6-21.2 6.6-31.1z" fill="#7d7d7d" stroke="#7d7d7d" stroke-width=".09375"/>
<path d="m164.3 87.9c1.9-2.5 3.8-5 5.9-7.3 5.2 6.9 6.2 15.8 6.8 24.2-0.1 0.4-0.4 1.3-0.5 1.7-0.7-1.5-1.4-3.1-2-4.6-1-0.1-1.9-0.1-2.9-0.2v-2.4c-3.7 3.1-8 5.6-13 5.7 1.4-2.1 4-2.7 6.1-3.5 3.3-1.2 5.9-3.4 8.6-5.4-3.1-0.8-6.2-1.5-9.3-2.4 1.6-1.2 3.2-2.4 4.9-3.5-1.5-0.8-3.1-1.5-4.6-2.3z" fill="#777" stroke="#777" stroke-width=".09375"/>
<path d="m201.2 84.3c7.2 11.5 12 24.8 12.7 38.4-0.9 7.5-0.1 15.1-1.7 22.5 0.4-9.9 0.4-20-1.6-29.8-2-10.6-6.8-20.4-11.7-29.9 0.8-0.4 1.6-0.8 2.3-1.2z" fill="#858585" stroke="#858585" stroke-width=".09375"/>
<path d="m104.2 97c1.9-3.9 3.6-7.9 4.8-12.1 0.1 4.6 0 9.3-1.8 13.7 0.9-0.2 1.8-0.4 2.6-0.5 0.5 8.4-1.1 16.7-1.7 25 0.6-7.3 0.3-14.8-0.5-22.1-1.3 1.6-2.5 3.3-3.7 4.9 0.4-2.3 0.8-4.5 1.3-6.8 0.1-0.3 0.2-1.1 0.3-1.4-0.3-0.2-0.9-0.5-1.3-0.7z" fill="#aaa" stroke="#aaa" stroke-width=".09375"/>
<path d="m92.3 106.2c-0.3-4.4 0.4-9.1 3.6-12.3 1.6 4.4-1.6 8.6-3.6 12.3z" fill="#bcbcbc" stroke="#bcbcbc" stroke-width=".09375"/>
<path d="m96.4 106.1c0.2-2.6 1.2-8 5-5.8-1.7 1.9-3.2 4-5 5.8z" fill="#c4c4c4" stroke="#c4c4c4" stroke-width=".09375"/>
<path d="m101.4 100.3c1.2-0.5 2.5-0.8 3.8-1.2-0.5 2.3-0.9 4.5-1.3 6.8 1.2-1.6 2.4-3.3 3.7-4.9 0.8 7.3 1.1 14.8 0.5 22.1l-0.1 0.9c-1.8 3.6-3.9 7.1-4.9 11-0.1 1.8-0.2 3.7-0.2 5.5-1.7-0.1-3.4-0.2-5-0.3 1 1.4 2 2.9 3.2 4.2-1.7-0.1-3.4-0.1-5.1-0.1 0.5 1.2 1.1 2.3 1.7 3.4 1 1.2 2.2 2.4 3.3 3.6 1.9-0.4 3.8-0.7 5.7-1 0.6 3.3 1.2 6.6 2.1 9.8v2c-2-2.7-3.7-5.5-5.5-8.2-0.8 2.4-1.6 5-0.6 7.5 3.1 7.9 11 12.4 14.9 19.7-5.5-4.4-9.9-9.9-15.4-14.3-0.1 3.8 0 7.5 0.5 11.2-0.4 2.6-0.9 5.1-1.3 7.6-1.1-1.2-2.3-2.3-3.5-3.5 0.1 1.3 0.1 2.5 0.2 3.8-0.7-1.9-1.3-3.8-1.8-5.8l-1.5 3.3-0.5 0.3c-1.4-0.4-2.9-0.8-4.3-1.2-0.2-2.2-0.3-4.4-0.4-6.5-1 2-1.9 4-2.8 6.1-0.6-1.4-1.2-2.8-1.7-4.2-0.4 1.7-0.8 3.4-1.2 5-0.8-1.3-1.5-2.7-2.2-4.1l-0.1-0.8c-1.8 1-3.7 1.9-5.3 3.3-0.8 2-1.1 4.2-1.6 6.4-2.2-3.3-1.1-7.1 0.1-10.5-1.9 2.6-4.6 4.3-7.8 4.8l1.2-3.6c0.3-1.4 0.4-2.8 0.5-4.2 0.1-0.7 0.1-2.2 0.2-2.9 1.2 1 2.4 1.9 3.6 2.8-0.9-5.9-5.5-10.9-4.7-17.1 0.9-4.4 3.3-8.2 4.5-12.4 0.8-4.3 0-8.8 0.7-13.2 4.1-3.1 6.9-7.4 10.1-11.3 0.6 0.5 1.1 1.1 1.7 1.7 0.2-0.3 0.7-0.9 1-1.2 2.1-1.8 4.8-3.2 6.1-5.8-0.1-2.3-0.8-4.4-1.3-6.6 1.9-0.9 4.2-0.7 5.8-2.1 1.8-1.8 3.3-3.9 5-5.8z" fill="#303030" stroke="#303030" stroke-width=".09375"/>
<path d="m158.6 105c5-0.1 9.3-2.6 13-5.7v2.4c1 0.1 1.9 0.1 2.9 0.2 0.6 1.5 1.3 3.1 2 4.6-0.2 0.5-0.5 1.4-0.7 1.9-2.9-2.1-6.5-2.9-9.9-1.7-2.9 0.3-5.5 1.7-7.3 4 2.4-0.5 4.8-1.1 7.1-1.8 0.4 0.1 1.1 0.3 1.5 0.4-2.4 1.4-4.7 3-6.8 4.9 3.6-0.9 7.5-1.5 11 0.5-0.3 0.2-0.9 0.8-1.2 1-1 0-2 0-3-0.1-0.5 0.6-0.9 1.3-1.3 2-1.6-0.2-3.2-0.4-4.9-0.6 0.8 0.9 1.5 1.8 2.2 2.7-1.2 2.2-2.3 4.3-3.2 6.6-1-4.1-2.1-8.2-3-12.4-0.2-1.9-0.3-3.9-0.2-5.9l1.8-3z" fill="#242424" stroke="#242424" stroke-width=".09375"/>
<path d="m129.7 103c2.7-1 5.4-1.6 8.2-1.7 3.8 0.4 7.5 1.2 11.2 2-0.4 0.5-1 1.6-1.4 2.1-0.3-0.2-1.1-0.6-1.4-0.9-3.7-3.2-9-1.4-12.6 1 4.2 0.1 8.5 0.1 12.3 2.1-1.1 1-2.3 2-3.5 3.1 0.9 1 1.8 2.1 2.7 3.2-0.6 0.8-1.2 1.7-1.8 2.6-0.6-1.1-1.3-2.2-1.9-3.3-0.4-0.1-1.3-0.3-1.8-0.4-0.2 0.9-0.4 1.8-0.6 2.6-2.1 1.5-4.6 2.1-7.1 2.2 2.4-1.5 4.7-3.3 6.5-5.5 0.6-0.1 1.8-0.3 2.4-0.4-1.4-0.8-2.7-1.7-4-2.5 1.7-0.1 3.5-0.1 5.2-0.2-0.3-0.6-1.1-1.7-1.4-2.2-2.2 0.2-4.5 0.5-6.7 0.9-1.1-1.9-2.4-3.6-4.3-4.7z" fill="#9a9a9a" stroke="#9a9a9a" stroke-width=".09375"/>
<path d="m120 109.4c3-2.4 6.1-4.9 9.7-6.4 1.9 1.1 3.2 2.8 4.3 4.7-2.8 1.3-5.4 3-7.7 5.1h-3.9c0.5-1.1 1.1-2.2 1.6-3.3-1.3 0-2.7 0-4-0.1z" fill="#c5c5c5" stroke="#c5c5c5" stroke-width=".09375"/>
<path d="m133.7 105.5c3.6-2.4 8.9-4.2 12.6-1 0.3 0.3 1.1 0.7 1.4 0.9-0.5 0.8-1.1 1.5-1.7 2.2-3.8-2-8.1-2-12.3-2.1z" fill="#070707" stroke="#070707" stroke-width=".09375"/>
<path d="m177 104.8c0.9 7.2-0.6 14.4 0 21.5-2.4-1.7-4.1-4.1-5.6-6.5-1 0.1-1.9 0.2-2.8 0.3 0.4-1.5 1-2.9 1.6-4.4 0.3-0.2 0.9-0.8 1.2-1l2 0.8c-1.6-2.6-3.5-4.9-6.2-6.2-0.4-0.1-1.1-0.3-1.5-0.4l3.3-1.8c-0.8-0.1-2.4-0.3-3.1-0.4 3.4-1.2 7-0.4 9.9 1.7 0.2-0.5 0.5-1.4 0.7-1.9 0.1-0.4 0.4-1.3 0.5-1.7z" fill="#6f6f6f" stroke="#6f6f6f" stroke-width=".09375"/>
<path d="m134 107.7c2.2-0.4 4.5-0.7 6.7-0.9 0.3 0.5 1.1 1.6 1.4 2.2-1.7 0.1-3.5 0.1-5.2 0.2-6.3-0.5-9 6.2-13.8 9 1-1.9 2.1-3.7 3.2-5.4 2.3-2.1 4.9-3.8 7.7-5.1z" fill="#343434" stroke="#343434" stroke-width=".09375"/>
<path d="m158.6 110.7c1.8-2.3 4.4-3.7 7.3-4 0.7 0.1 2.3 0.3 3.1 0.4l-3.3 1.8c-2.3 0.7-4.7 1.3-7.1 1.8z" fill="#c7c7c7" stroke="#c7c7c7" stroke-width=".09375"/>
<path d="m85.8 120.6c2.5-3.7 3.9-8 4.8-12.4 0.5 2.2 1.2 4.3 1.3 6.6-1.3 2.6-4 4-6.1 5.8z" fill="#ababab" stroke="#ababab" stroke-width=".09375"/>
<path d="m93.5 109.9c1.6 1.4 4.7 2.4 4.2 4.9-0.3 2.5-2.5 4-4.1 5.6 0.7-3.5 0.7-7-0.1-10.5z" fill="#b4b4b4" stroke="#b4b4b4" stroke-width=".09375"/>
<path d="m160.4 114.2c2.1-1.9 4.4-3.5 6.8-4.9 2.7 1.3 4.6 3.6 6.2 6.2l-2-0.8c-3.5-2-7.4-1.4-11-0.5z" fill="#f2f2f2" stroke="#f2f2f2" stroke-width=".09375"/>
<path d="m97.4 120.4c0.8-3 1.7-6.1 3.5-8.6 0.1 1.9 0.8 4-0.2 5.8-1 1.1-2.2 1.9-3.3 2.8z" fill="#a4a4a4" stroke="#a4a4a4" stroke-width=".09375"/>
<path d="m127.2 117.6c3-3.2 6.9-5.4 11.3-5.5-1.8 2.2-4.1 4-6.5 5.5-0.8 0.3-1.5 0.6-2.2 1-0.9-0.3-1.8-0.7-2.6-1z" fill="#262626" stroke="#262626" stroke-width=".09375"/>
<path d="m104.7 112.9c1.2 2.4 1.7 5.1 0.9 7.7-1.2 2.1-3.4 3.2-5.3 4.6 1.4-4.1 2.8-8.2 4.4-12.3z" fill="#c0c0c0" stroke="#c0c0c0" stroke-width=".09375"/>
<path d="m139.7 112.8c0.5 0.1 1.4 0.3 1.8 0.4 0.6 1.1 1.3 2.2 1.9 3.3 0.5 2.4-0.3 4.7-1.3 6.9-3-0.4-6-0.7-8.9-0.9 0-0.5 0.1-1.4 0.2-1.8l4.8-1.5c0.3-1.3 0.6-2.5 0.9-3.8 0.2-0.8 0.4-1.7 0.6-2.6z" fill="#bababa" stroke="#bababa" stroke-width=".09375"/>
<path d="m157 113.9c0.9 4.2 2 8.3 3 12.4 0.1 2.3 0.2 4.5 0.1 6.7-4.7 3.8-11 3.1-16.5 4.4 0.9 1.2 1.7 2.4 2.8 3.5 1.9-0.3 3.8-1.1 5.7-1.7 1.6 1.4 3.2 2.8 4.7 4.3-1.4 1.9-2.8 3.7-4.2 5.6 1.7-0.1 3.5-0.3 5.2-0.5-0.2 0.8-0.5 1.6-0.7 2.4-4.8 0.5-9.7 0-14.5-0.3 2.2-0.9 4.2-2.1 6.3-3.3-4.4-2.9-10 0.9-12.6 4.6-0.2 0.4-0.7 1.1-1 1.5 10.2-0.9 20.4-0.9 30.5 0.6-5.7 0.7-11.5 0.6-17 2.3 1.7-0.1 3.4-0.2 5.2-0.2-0.5 0.5-1.4 1.7-1.9 2.2l-0.4 0.6c-1.2 1.4-2.2 2.9-3.2 4.4 2.1 2 6.1 3.7 5.2 7.2-0.3 1.9-1.3 4.2-3.4 4.6-3 0.6-6.1 0.5-9.2 0.1-2.8-0.5-4.8-2.8-6.9-4.5-3.4-3-6.6-6.1-10-8.9-4-3.3-8.7-5.4-13.2-7.8-0.5-1.9-1-3.8-1.4-5.6 2.2 0.9 4.6 1.4 7 1.5 1.4 1.2 2.8 2.6 4.5 3.6 3.9-0.4 7.3-2.8 10.5-5.1 5.6-4 6.9-11.4 11.6-16.3 3.7-3.6 4.5-8.8 6-13.5 0.3 4.8 0.9 9.6 2.2 14.3 1.7-0.4 5 0.4 5.1-2.2 0-4.9-0.1-9.9 0.4-14.8 0-0.5 0.1-1.6 0.1-2.1z" fill="#ececec" stroke="#ececec" stroke-width=".09375"/>
<path d="m167.2 115.6c1 0.1 2 0.1 3 0.1-0.6 1.5-1.2 2.9-1.6 4.4-0.1 0.3-0.2 0.9-0.2 1.3l3.6 1.5c-1 2.1-1.9 4.2-2.9 6.3-1.9-1-3.9-1.7-5.4-3.1-0.1-1.1 0.1-2.2 0.2-3.3 0.2-1.1-0.2-2.2-0.7-3.1-0.7-0.9-1.4-1.8-2.2-2.7 1.7 0.2 3.3 0.4 4.9 0.6 0.4-0.7 0.8-1.4 1.3-2z" fill="#afafaf" stroke="#afafaf" stroke-width=".09375"/>
<path d="m73 131.4c0.9-5.3 4-9.8 7.9-13.5 0.7 0.8 1.4 1.5 2.2 2.2-3.2 3.9-6 8.2-10.1 11.3z" fill="#6c6c6c" stroke="#6c6c6c" stroke-width=".09375"/>
<path d="m168.6 120.1c0.9-0.1 1.8-0.2 2.8-0.3 1.5 2.4 3.2 4.8 5.6 6.5 0.1 0.6 0.4 1.8 0.5 2.3-0.1 1.9-0.2 3.7-0.4 5.6-1.7 0.2-3.4 0.4-5 0.9-2.4 6.3-0.1 14.1-4.9 19.5-0.2-2.8-0.4-5.6-0.5-8.4-0.7 0.5-1.4 1-2.2 1.5 0.7-2.1 1.6-4.2 1.2-6.4-0.7-5.4-2.3-10.7-3.6-16 0.6-0.8 1.2-1.6 1.8-2.5-0.1 1.1-0.3 2.2-0.2 3.3 1.5 1.4 3.5 2.1 5.4 3.1 1-2.1 1.9-4.2 2.9-6.3l-3.6-1.5c0-0.4 0.1-1 0.2-1.3z" fill="#989898" stroke="#989898" stroke-width=".09375"/>
<path d="m163.2 119.7c0.5 0.9 0.9 2 0.7 3.1-0.6 0.9-1.2 1.7-1.8 2.5 1.3 5.3 2.9 10.6 3.6 16 0.4 2.2-0.5 4.3-1.2 6.4 0.5 2.1 0.9 4.2 1.3 6.4-10.1-1.5-20.3-1.5-30.5-0.6 0.3-0.4 0.8-1.1 1-1.5 2.1-0.6 4.2-1 6.3-1.3 4.8 0.3 9.7 0.8 14.5 0.3 1.7-0.2 3.4-0.4 5.1-0.6-0.8-1.2-1.5-2.4-2.2-3.6 3.1-2.6 3.8-6.8 4.6-10.6-1 0.8-2.1 1.5-3.1 2.2-0.9-0.2-1.8-0.4-2.6-0.6 0.4-1.6 0.8-3.1 1.2-4.8 0.1-2.2 0-4.4-0.1-6.7 0.9-2.3 2-4.4 3.2-6.6z" fill="#575757" stroke="#575757" stroke-width=".09375"/>
<path d="m83.4 124.7c0.7-0.7 1.5-1.3 2.2-2 0.1 1.7-0.2 3.3-0.1 4.9-0.8 0.9-1.6 1.8-2.5 2.7 0.1-1.9 0.2-3.8 0.4-5.6z" fill="#686868" stroke="#686868" stroke-width=".09375"/>
<path d="m212.2 145.2c1.6-7.4 0.8-15 1.7-22.5 2.4 18 0.8 36.9-6.9 53.5-0.2-0.6-0.5-1.8-0.7-2.5 0.4-3 0.8-6 1.4-9 1.8-6.4 3.4-12.9 4.5-19.5z" fill="#666" stroke="#666" stroke-width=".09375"/>
<path d="m103.1 135c1-3.9 3.1-7.4 4.9-11 0 2.7 0.4 5.4 1.3 7.9-0.6 0.8-1.1 1.6-1.6 2.4-1.5 0.2-3.1 0.5-4.6 0.7z" fill="#c5c5c5" stroke="#c5c5c5" stroke-width=".09375"/>
<path d="m77.4 143.3c-4.3-6.7 0.5-14.5 6-18.6-0.2 1.8-0.3 3.7-0.4 5.6 0.9-0.9 1.7-1.8 2.5-2.7 1.6 0.5 3.2 0.9 4.8 1.3-0.4 1-0.9 2.1-1.3 3.1 1.3-0.9 2.6-1.8 4-2.8-0.8 1.5-1.5 3-2.1 4.6-2 4.3-2.1 9.2-2.1 13.9l-2.7-2.7c0.1 2.5 0.1 4.9 0.3 7.3-1.3-2.4-2.2-5-2.5-7.7-0.2-2.1-0.4-4.2-0.7-6.3-1 2-2.1 4-3 6.1-0.4-3.2-0.6-6.4-0.9-9.6-0.8 2.8-1.4 5.6-1.9 8.5z" fill="#cbcbcb" stroke="#cbcbcb" stroke-width=".09375"/>
<path d="m85.5 127.6c1-1.7 2.5-3 4-1.2 1.3-0.4 2.6-0.8 4-1.2-1 1.3-1.7 3-3.2 3.7-1.6-0.4-3.2-0.8-4.8-1.3z" fill="#828282" stroke="#828282" stroke-width=".09375"/>
<path d="m177.7 129.4c0.5-1.6 1-3.3 1.5-4.9 1.9 7.4 4.1 14.7 6.5 21.9 1.2 6.1 2.4 12.3 3 18.5 0.4 4.9-3.8 7.9-6 11.7-1.3 4.7 1.2 9.5 0.3 14.2-2.1 3.2-5.5 5.1-8.1 7.9 2.4 1.6 4.7 3.1 7.1 4.6-1 1.6-2.1 3.2-3.3 4.6-1.8-1.4-3.6-2.8-5.5-4.1 1.3 1.7 2.5 3.4 3.8 5.1-4.7 3-9.5 5.8-14.2 8.9-0.1-0.7-0.1-1.5-0.1-2.2 2.5-2 5.3-3.6 7.7-5.8-7.3-0.6-14 2.9-20.4 5.9 2.3 1.4 4.7 2.9 7.2 4.2-4.7-0.1-9.4 0.8-14.1 0.1-3.6-1.3-6.2-4.4-9-6.8 0.7-1.2 1.4-2.4 2.2-3.5 1 0.5 2 0.9 3.1 1.4 2.1 0.9 4.2 1.9 6.5 2 3.8-1.1 7-3.7 10.6-5.2-0.1-2.4-0.3-4.9-0.5-7.3 1-1.8 2.1-3.6 3.1-5.4-4.6 1.5-9.3 2.8-14.2 2.8-1.1-0.3-2.2-0.6-3.2-0.9-0.1-0.4-0.2-1.3-0.2-1.7 6.2-0.3 12.8-0.5 18.3-3.6 3-4 3.7-9.1 5.5-13.6 4.6-8.8 9.8-17.6 11.5-27.5 1.1-7 1.9-14.2 0.9-21.3z" fill="#1d1d1d" stroke="#1d1d1d" stroke-width=".09375"/>
<path d="m41.6 165c-1.7-12-2.1-24.3 0-36.2 0.6 4.5 1.6 8.9 2.5 13.4 0.2 5.6 0.3 11.3 1.1 16.8 0.5 3.4 0.5 6.8 0.1 10.2l-6.3-4.2h2.6z" fill="#9b9b9b" stroke="#9b9b9b" stroke-width=".09375"/>
<path d="m53 128.7c0.6 3.5 1.4 7 1.9 10.6 0.4 9 3 17.8 5.2 26.5 0.6 3 1 6 1.5 9.1-0.2 0.6-0.5 1.8-0.6 2.4-6.9-15.1-9.5-32.1-8-48.6z" fill="#606060" stroke="#606060" stroke-width=".09375"/>
<path d="m91.6 136.2c1.8-3 4.2-5.7 7.3-7.5-2.2 3.8-4.6 7.4-6.3 11.5-0.3-1.3-0.6-2.7-1-4z" fill="#d8d8d8" stroke="#d8d8d8" stroke-width=".09375"/>
<path d="m97 135.9c1.2-2.9 2.8-5.8 6-6.9-1.3 2.8-3.5 5.1-6 6.9z" fill="#c4c4c4" stroke="#c4c4c4" stroke-width=".09375"/>
<path d="m177.5 128.6 0.2 0.8c1 7.1 0.2 14.3-0.9 21.3-1.7 9.9-6.9 18.7-11.5 27.5-0.9 0.3-1.7 0.6-2.6 0.9-1.4 0.4-2.8 0.9-4.2 1.4 2.6-4.1 7.3-6.8 8.3-11.8-3.1 3-5.6 7-10 8.4l0.6-0.6c0.3-0.3 0.8-1 1-1.3 1.5-2 3.8-3.7 4.3-6.2-0.7-2.4-2.4-4.2-3.7-6.2 0.2-1.5 0.3-2.9 0.5-4.4-2.4 0.1-4.9 0-7.4 0 0.5-0.5 1.4-1.7 1.9-2.2-1.8 0-3.5 0.1-5.2 0.2 5.5-1.7 11.3-1.6 17-2.3-0.4-2.2-0.8-4.3-1.3-6.4 0.8-0.5 1.5-1 2.2-1.5 0.1 2.8 0.3 5.6 0.5 8.4 4.8-5.4 2.5-13.2 4.9-19.5 1.6-0.5 3.3-0.7 5-0.9 0.2-1.9 0.3-3.7 0.4-5.6z" fill="#868686" stroke="#868686" stroke-width=".09375"/>
<path d="m109.3 131.9c0.9 1.1 1.9 2.2 2.9 3.3-1.6 4.2-4.4 8.6-2.6 13.3 0.4 1.8 0.9 3.7 1.4 5.6 4.5 2.4 9.2 4.5 13.2 7.8 3.4 2.8 6.6 5.9 10 8.9-2.9-1.6-6.3-1.9-9.5-2.1 2.8 2.4 6.1 4.3 8.5 7.1 0.8 2 0.5 4.3 0.6 6.4-2.6-1.1-5.2-2.5-7.9-3.3-1.2 0.3-2.4 1-3.5 1.5-5.7-6-8.1-14.2-13.6-20.3-0.9-3.2-1.5-6.5-2.1-9.8-1.9 0.3-3.8 0.6-5.7 1-1.1-1.2-2.3-2.4-3.3-3.6l5.4-2.7c-0.5-0.1-1.5-0.4-2-0.6-1.2-1.3-2.2-2.8-3.2-4.2 1.6 0.1 3.3 0.2 5 0.3 0-1.8 0.1-3.7 0.2-5.5 1.5-0.2 3.1-0.5 4.6-0.7 0.5-0.8 1-1.6 1.6-2.4z" fill="#dfdfdf" stroke="#dfdfdf" stroke-width=".09375"/>
<path d="m143.6 137.4c5.5-1.3 11.8-0.6 16.5-4.4-0.4 1.7-0.8 3.2-1.2 4.8-1.3 0.7-2.5 1.3-3.7 2 2 2 3.5 4.5 4.8 7 0.7 1.2 1.4 2.4 2.2 3.6-1.7 0.2-3.4 0.4-5.1 0.6 0.2-0.8 0.5-1.6 0.7-2.4-1.7 0.2-3.5 0.4-5.2 0.5 1.4-1.9 2.8-3.7 4.2-5.6-1.5-1.5-3.1-2.9-4.7-4.3-1.9 0.6-3.8 1.4-5.7 1.7-1.1-1.1-1.9-2.3-2.8-3.5z" fill="#b1b1b1" stroke="#b1b1b1" stroke-width=".09375"/>
<path d="m88.8 147.7c0-4.7 0.1-9.6 2.1-13.9 0.2 0.6 0.5 1.8 0.7 2.4 0.4 1.3 0.7 2.7 1 4 0.4 1.5-0.2 3.1-0.5 4.6-0.7-2.3-1.2-4.6-1.7-6.9-1.3 4.9-0.4 10 0.5 15-0.9-0.5-1.9-1.1-2.8-1.6 0.2 1.2 0.4 2.4 0.7 3.7-0.6-0.2-1.7-0.6-2.2-0.7 0-0.5-0.1-1.5-0.2-2-0.2-2.4-0.2-4.8-0.3-7.3l2.7 2.7z" fill="#787878" stroke="#787878" stroke-width=".09375"/>
<path d="m161.5 138.4c1-0.7 2.1-1.4 3.1-2.2-0.8 3.8-1.5 8-4.6 10.6-1.3-2.5-2.8-5-4.8-7 1.2-0.7 2.4-1.3 3.7-2 0.8 0.2 1.7 0.4 2.6 0.6z" fill="#464646" stroke="#464646" stroke-width=".09375"/>
<path d="m148.7 137.3c1.2-0.9 3.3-0.9 4.6 0-0.4 1.4-4.3 1.6-4.6 0z" fill="#2b2b2b" stroke="#2b2b2b" stroke-width=".09375"/>
<path d="m80.2 144.4c0.9-2.1 2-4.1 3-6.1 0.3 2.1 0.5 4.2 0.7 6.3-1.8 1.7-0.8 4.4-0.9 6.6-1.4-2-3.2-4.2-2.8-6.8z" fill="#808080" stroke="#808080" stroke-width=".09375"/>
<path d="m96 144.3c1.7 0 3.4 0 5.1 0.1 0.5 0.2 1.5 0.5 2 0.6l-5.4 2.7c-0.6-1.1-1.2-2.2-1.7-3.4z" fill="#878787" stroke="#878787" stroke-width=".09375"/>
<path d="m136.3 152c2.6-3.7 8.2-7.5 12.6-4.6-2.1 1.2-4.1 2.4-6.3 3.3-2.1 0.3-4.2 0.7-6.3 1.3z" fill="#cdcdcd" stroke="#cdcdcd" stroke-width=".09375"/>
<path d="m74.5 149.8c1.3 2.2 1.9 4.7 2.8 7.1 0.5 0.8 0.9 1.6 1.4 2.4 0.3-1.2 0.7-2.3 1-3.5 0.9 1.2 1.8 2.4 2.8 3.6 0.3-0.2 1-0.4 1.4-0.6 0.9 0.8 1.7 1.5 2.6 2.2 2.1 0.1 3.6 1.8 5.2 3-0.2-1.2-0.4-2.5-0.6-3.7 1.4 0.6 2.8 1.3 4.1 2 0.1-2.5 0.2-4.9 0.4-7.4 2.6 4 3.5 9.9-0.2 13.6-0.8 1.1-2.2 0.4-3.2 0.4-0.8 0.9-1.5 1.7-2.2 2.5-2.3-0.5-4.6-0.4-6.9 0.1-0.2-1.2-0.4-2.3-0.6-3.5-1 1.6-2 3.3-3 5 0.7-8.4-7-14.8-5-23.2z" fill="#c4c4c4" stroke="#c4c4c4" stroke-width=".09375"/>
<path d="m78.3 151.8c0.5 1.3 1.8 2.5 1.4 4-0.3 1.2-0.7 2.3-1 3.5-0.5-0.8-0.9-1.6-1.4-2.4 0.3-1.7 0.6-3.4 1-5.1z" fill="#7f7f7f" stroke="#7f7f7f" stroke-width=".09375"/>
<path d="m75.8 171.2c-4.7-4.1-7-11.4-4.4-17.3 0.7 6 3.4 11.4 4.4 17.3z" fill="#c0c0c0" stroke="#c0c0c0" stroke-width=".09375"/>
<path d="m102.7 161.4c-1-2.5-0.2-5.1 0.6-7.5 1.8 2.7 3.5 5.5 5.5 8.2v-2c5.5 6.1 7.9 14.3 13.6 20.3 1.1-0.5 2.3-1.2 3.5-1.5 2.7 0.8 5.3 2.2 7.9 3.3-0.1-2.1 0.2-4.4-0.6-6.4-2.4-2.8-5.7-4.7-8.5-7.1 3.2 0.2 6.6 0.5 9.5 2.1 2.1 1.7 4.1 4 6.9 4.5 3.1 0.4 6.2 0.5 9.2-0.1 2.1-0.4 3.1-2.7 3.4-4.6 0.9-3.5-3.1-5.2-5.2-7.2 1-1.5 2-3 3.2-4.4 2.2 2.8 5.1 5.2 6.8 8.4 0.6 2.6 0.2 5.2-0.1 7.8-0.2 0.3-0.7 1-1 1.3-6.1 1.7-12.5 2.4-18.4-0.1-0.7 0.8-1.4 1.7-2.1 2.5 1 1.6 2 3.3 3 4.9-2.8-0.2-5.6-0.4-8.4-0.5-1.6 1.9-3.2 3.9-4.9 5.8-3.3-2.3-6.4-5-9-8-3.9-7.3-11.8-11.8-14.9-19.7z" fill="#c0c0c0" stroke="#c0c0c0" stroke-width=".09375"/>
<path d="m68.7 174.2c-1.7-5.6-2.6-11.5-0.9-17.2-0.8 6.2 3.8 11.2 4.7 17.1-1.2-0.9-2.4-1.8-3.6-2.8-0.1 0.7-0.1 2.2-0.2 2.9z" fill="#8e8e8e" stroke="#8e8e8e" stroke-width=".09375"/>
<path d="m151.7 159 0.4-0.6c2.5 0 5 0.1 7.4 0-0.2 1.5-0.3 2.9-0.5 4.4 1.3 2 3 3.8 3.7 6.2-0.5 2.5-2.8 4.2-4.3 6.2 0.3-2.6 0.7-5.2 0.1-7.8-1.7-3.2-4.6-5.6-6.8-8.4z" fill="#ababab" stroke="#ababab" stroke-width=".09375"/>
<path d="m178 160.1c1.6-0.5 3.1-1 4.7-1.5 0.6 0.7 1.3 1.4 1.9 2.1 0.3-0.7 0.8-2 1.1-2.6 1.2 2.8 2.2 5.8 1.5 8.8-0.8 2.1-2.5 3.6-3.9 5.1 0.1-1.2 0.3-2.5 0.5-3.8-1.2 0.9-2.4 1.7-3.6 2.6l0.6-3.6c-1.1 1-2.2 1.9-3.3 2.9-0.5-1.4-1-2.7-1.4-4.1 0.3-2.1 1.1-4 1.9-5.9z" fill="#8a8a8a" stroke="#8a8a8a" stroke-width=".09375"/>
<path d="m34.8 163.5c1.4 0.5 2.8 1 4.2 1.5l6.3 4.2c4.8 3.4 9.1 7.4 12.4 12.2 3.2 4.8 4.7 10.5 5.8 16.2-2.4-0.8-4.7-1.6-7-2.4l0.3-6.9c-0.8 0.6-1.5 1.2-2.3 1.9-3-6-5.6-12.3-10.3-17.3 1.9 5.1 2.9 10.8 6.7 14.9-2-0.5-4-1.1-5.9-1.6 2.8 1.9 5.5 4.2 7.7 6.9-4-0.6-7.8-1.8-11.8-2.2-2.6-9-3.3-18.4-6.1-27.4z" fill="#fafafa" stroke="#fafafa" stroke-width=".09375"/>
<path d="m227.6 165.5c1.7-0.8 3.5-1.6 5.2-2.3-3 8.1-3.7 16.6-5.4 25-2.8 4.4-8.5 4.6-13.2 5.2 2.1-2.9 4.9-5.2 7.8-7.2-1.8 0.5-3.5 1.1-5.2 1.6 2.4-3.9 4-8.4 4.9-12.9-3.7 4.6-6 10-8.8 15.2-0.7-1.3-1.5-2.5-2.2-3.7-0.3 2.8-0.5 5.6-0.7 8.4-2.1 1.1-4.2 2.2-6.2 3.4 0.9-7.7 3.9-14.9 8.7-20.9 4.2-4.1 8.7-7.8 13.6-11.1 0.3-0.2 1.1-0.6 1.5-0.7z" fill="#fafafa" stroke="#fafafa" stroke-width=".09375"/>
<path d="m193.2 191.3c6.3-8 10.6-17.2 14.5-26.6-0.6 3-1 6-1.4 9-5.5 14.3-15.5 26.7-27.7 35.9-3.8 3.1-9.6 4.5-10.7 9.9-1.3 0.2-2.6 0.3-4 0.4-0.2-0.5-0.8-1.6-1.1-2.1 4.7-3.1 9.5-5.9 14.2-8.9-1.3-1.7-2.5-3.4-3.8-5.1 1.9 1.3 3.7 2.7 5.5 4.1 1.2-1.4 2.3-3 3.3-4.6 3.9-3.8 8-7.5 11.2-12z" fill="#c0c0c0" stroke="#c0c0c0" stroke-width=".09375"/>
<path d="m60.1 165.8c1.9 4.2 4.1 8.4 6.1 12.6h2l-1.2 3.6c1.6 3.2 3.5 6.2 5.8 9 1.3 1.7 2.7 3.4 4 5.1 3.3 4.4 8.4 7.3 10.7 12.3-11.4-8.6-20.4-20.4-25.9-33.5-0.5-3.1-0.9-6.1-1.5-9.1z" fill="#b1b1b1" stroke="#b1b1b1" stroke-width=".09375"/>
<path d="m172.6 175.5c-2.2-3.7 1.1-6.9 3.5-9.5 0.4 1.4 0.9 2.7 1.4 4.1l0.3 0.8c-1.6 1.7-3.3 3.3-5.2 4.6z" fill="#444" stroke="#444" stroke-width=".09375"/>
<path d="m102.2 166.8c5.5 4.4 9.9 9.9 15.4 14.3 2.6 3 5.7 5.7 9 8 2 1.4 4 2.8 6.1 4.1 1 0.5 2 1.1 3 1.6 1.9 0.9 3.9 1.7 6 2.3 1 0.3 2.1 0.6 3.2 0.9 1.4 0.6 2.8 1.3 4.3 1.9-2.9 0.1-5.8 0.1-8.7 0.1v2.5c-3.9-1.8-7.7-3.7-11.5-5.5 3 2.2 6 4.5 8.4 7.3-1.6-0.4-3.2-0.7-4.8-1 2 1.3 3.9 2.8 6.2 3.5 3.6 1.1 7.3 1.1 11 1.1 0.3 0.4 1 1.2 1.3 1.5-3.8 0.6-8.5-1.2-11.7 1.7-1.1-0.5-2.1-0.9-3.1-1.4-3.8-1.9-7.5-3.8-11.2-5.8-0.7-0.7-1.4-1.3-2.2-2-8.3-6.5-15.2-14.6-20.2-23.9-0.5-3.7-0.6-7.4-0.5-11.2z" fill="#fcfcfc" stroke="#fcfcfc" stroke-width=".09375"/>
<path d="m156.8 177.1c4.4-1.4 6.9-5.4 10-8.4-1 5-5.7 7.7-8.3 11.8-3.8 1.2-7.7 2-11.5 2.9 1.6 2.1 3.1 4.2 4.6 6.3 4.2-2.9 10.1-5.1 11.1-10.6 0.9-0.3 1.7-0.6 2.6-0.9-1.8 4.5-2.5 9.6-5.5 13.6-5.5 3.1-12.1 3.3-18.3 3.6 0 0.4 0.1 1.3 0.2 1.7-2.1-0.6-4.1-1.4-6-2.3 2.9-0.4 5.8-0.6 8.5-1.7 1.5-0.9 2.3-2.5 3.3-3.9l-3-3.9c0-0.5-0.2-1.4-0.2-1.8-1.6-1.4-3.1-2.9-4.5-4.3 5.7 0.7 11.9 1.3 17-2.1z" fill="#6c6c6c" stroke="#6c6c6c" stroke-width=".09375"/>
<path d="m44.2 172.9c4.7 5 7.3 11.3 10.3 17.3 0.4 1.7 0.6 3.4 0.7 5.1-5.2-1.5-10.5-2.8-15.7-4.6 0.3 0.1 1.1 0.1 1.4 0.2 4 0.4 7.8 1.6 11.8 2.2-2.2-2.7-4.9-5-7.7-6.9 1.9 0.5 3.9 1.1 5.9 1.6-3.8-4.1-4.8-9.8-6.7-14.9z" fill="#717171" stroke="#717171" stroke-width=".09375"/>
<path d="m92.4 176.5c1-1.5 2.9-1.6 4.5-1.8-1.1 2.7-2.2 6.5-5.8 6.5 0.3-1.6 0.6-3.2 1.3-4.7z" fill="#ababab" stroke="#ababab" stroke-width=".09375"/>
<path d="m206.3 173.7c0.2 0.7 0.5 1.9 0.7 2.5-7 17.4-20.4 32-36.9 41 0.3 0.8 0.7 1.7 1 2.6h9.1c0.4-2.1 0.9-4.4 2.9-5.6 6.9-4.7 12.7-10.8 17.8-17.4 3.1-4 4-9.2 6.5-13.5 1.5-2.7 3.3-5 5-7.5 0 0.3 0.1 1.1 0.1 1.5-4.8 6-7.8 13.2-8.7 20.9l-0.1 0.9c-5.8 2.5-9.5 7.6-13.3 12.4-2.9 2.3-7.7 3.6-7.6 8 6.9 0.5 13.8 0.9 20.7 0.1 8.8 0.6 17.7 0.2 26.5 0.3 7.4-0.2 14.9 0.4 22.2-0.5 0.6 0 1.6-0.1 2.2-0.1l0.6-0.1c0.2 0.5 0.7 1.5 1 2-4.6 0.7-9.3 0.4-14 0.4-56.7 0.1-113.3-0.1-170 0-19.4-0.1-38.8 0.2-58.2-0.2 3.6-5.2 10.8-5.4 16.4-6.8 2-0.1 4-0.2 5.9-0.2 2.4 0.5 4.7 1.1 7.1 1.5-1.1 0.2-2.3 0.6-3.5 0.9-7.3-2.9-15.2-0.2-22.1 2.8 20.1 0.3 40.3 0.2 60.4 0.2 2.6 0 5.1-0.6 7.6-1.4 0.2 0.2 0.7 0.6 0.9 0.9 3.5 0.8 7.2 0.5 10.7 0.2-0.8-4.4-5.6-5.6-8.7-8-12.1-8.6-21.6-20.7-27.5-34.2 0.1-0.6 0.4-1.8 0.6-2.4 5.5 13.1 14.5 24.9 25.9 33.5 1 0.8 2.1 1.5 3.1 2.2 3.6 2.1 7 4.6 9.3 8.1l0.9-3.3c-0.9-0.8-1.7-1.6-2.6-2.3-0.8-7.3-4.7-13.8-9.4-19.3 0.4-0.5 1.1-1.4 1.5-1.9 3.6 3.6 6.2 7.8 8.7 12 1.8 3.3 5.2 4.9 7.7 7.4 2.2 2.4 3.4 5.4 4.9 8.3 0.6 0 1.8 0.1 2.4 0.2 2.4 0.1 4.8 0.1 7.2 0.1-4-4.9-8.8-9.1-13.5-13.3-4.5-5.6-9.3-11.2-12.7-17.6-1.1-1.7-0.7-3.7-0.2-5.6l1.5-3.3c0.5 2 1.1 3.9 1.8 5.8 4.6 10.1 11.7 18.7 19.2 26.8 2.3 2.3 4.3 5.1 7.1 6.7 4.5 1.3 9.3 0.5 13.9 0.3-5.7-5.9-12-11.1-17.9-16.9l-0.6-0.5c0.8-0.1 2.4-0.3 3.1-0.4 0.8 0.7 1.5 1.3 2.2 2 2.9 3.2 5.7 6.4 9 9.3 2.8 2.4 5.4 5.5 9 6.8 4.7 0.7 9.4-0.2 14.1-0.1 2.2 0 4.5 0.1 6.7 0 1.4-0.1 2.7-0.2 4-0.4 1.1-5.4 6.9-6.8 10.7-9.9 12.2-9.2 22.2-21.6 27.7-35.9z" fill="#050505" stroke="#050505" stroke-width=".09375"/>
<path d="m212.9 190.1c2.8-5.2 5.1-10.6 8.8-15.2-0.9 4.5-2.5 9-4.9 12.9 1.7-0.5 3.4-1.1 5.2-1.6-2.9 2-5.7 4.3-7.8 7.2 4.7-0.6 10.4-0.8 13.2-5.2l-0.4 2.4c0.8-0.3 1.6-0.5 2.4-0.8 2.5-0.5 5.1-0.8 7.6-1.3-1.1 4.4-3.2 8.5-5.4 12.4 6 1.7 11.3 5.2 15.5 9.8-3 1.1-6 2.5-9.2 2.9-0.4-0.1-1.1-0.5-1.5-0.7 2.6-0.8 5.2-1.7 7.9-2.5-3.8-3.7-8.4-7.7-14-7.4-1 1.1-1.7 2.2-2.6 3.4 2.9 0.7 5.7 1.4 8.5 2.1-3.9 0.3-7.9 0.2-11.6 1.4-3.1 1.6-5.7 4-8.5 6-2.2-0.1-4.4-0.5-6.6-0.8 10.4-6.3 22.2-13 26.3-25.2-8.4 1.6-16.9 3.2-24.9 6.2 0.5-2 1.1-4.1 2-6z" fill="#454545" stroke="#454545" stroke-width=".09375"/>
<path d="m86.8 182.1c0.9-2.1 1.8-4.1 2.8-6.1 0.1 2.1 0.2 4.3 0.4 6.5 1.4 0.4 2.9 0.8 4.3 1.2-3.2 2.3-7.9 2.7-10.4-0.8 0.4-1.6 0.8-3.3 1.2-5 0.5 1.4 1.1 2.8 1.7 4.2z" fill="#b9b9b9" stroke="#b9b9b9" stroke-width=".09375"/>
<path d="m139 176.4c5.9 2.5 12.3 1.8 18.4 0.1l-0.6 0.6c-5.1 3.4-11.3 2.8-17 2.1 1.4 1.4 2.9 2.9 4.5 4.3 0 0.4 0.2 1.3 0.2 1.8-3.1 1.6-6.6 2.4-10.1 2.6-0.6 1.8-1.1 3.5-1.7 5.3-2.1-1.3-4.1-2.7-6.1-4.1 1.7-1.9 3.3-3.9 4.9-5.8 2.8 0.1 5.6 0.3 8.4 0.5-1-1.6-2-3.3-3-4.9 0.7-0.8 1.4-1.7 2.1-2.5z" fill="#9f9f9f" stroke="#9f9f9f" stroke-width=".09375"/>
<path d="m67 182c3.2-0.5 5.9-2.2 7.8-4.8-1.2 3.4-2.3 7.2-0.1 10.5 0.5-2.2 0.8-4.4 1.6-6.4 1.6-1.4 3.5-2.3 5.3-3.3l0.1 0.8c0 1.7-0.1 3.5 0.3 5.2 1.6 1.8 3.8 2.9 5.9 4.2-2.8-0.5-5.6-1.3-8.4-1-2.5 0.8-4.6 2.5-6.7 3.8-2.3-2.8-4.2-5.8-5.8-9z" fill="#8b8b8b" stroke="#8b8b8b" stroke-width=".09375"/>
<path d="m102.7 178c5 9.3 11.9 17.4 20.2 23.9-0.7 0.1-2.3 0.3-3.1 0.4-3.9-3.6-7.3-7.9-12-10.6-1.2 4.3 2.3 7.6 4.9 10.6 1.8 2.1 4.2 3.6 6.7 4.9 0.3-1.5 0.7-2.9 1-4.4 5.9 5.8 12.2 11 17.9 16.9-4.6 0.2-9.4 1-13.9-0.3-2.8-1.6-4.8-4.4-7.1-6.7-7.5-8.1-14.6-16.7-19.2-26.8-0.1-1.3-0.1-2.5-0.2-3.8 1.2 1.2 2.4 2.3 3.5 3.5 0.4-2.5 0.9-5 1.3-7.6z" fill="#737373" stroke="#737373" stroke-width=".09375"/>
<path d="m81.7 178.8c0.7 1.4 1.4 2.8 2.2 4.1 2.5 3.5 7.2 3.1 10.4 0.8l0.5-0.3c-0.5 1.9-0.9 3.9 0.2 5.6 3.4 6.4 8.2 12 12.7 17.6 1.8 4.6 3.8 9 6.3 13.2-0.6-0.1-1.8-0.2-2.4-0.2-1.5-2.9-2.7-5.9-4.9-8.3-2.5-2.5-5.9-4.1-7.7-7.4-2.5-4.2-5.1-8.4-8.7-12-0.4 0.5-1.1 1.4-1.5 1.9-1.2-1-2.5-1.8-3.8-2.7-2.8 1.5-5.5 3.2-8.2 5-1.3-1.7-2.7-3.4-4-5.1 2.1-1.3 4.2-3 6.7-3.8 2.8-0.3 5.6 0.5 8.4 1-2.1-1.3-4.3-2.4-5.9-4.2-0.4-1.7-0.3-3.5-0.3-5.2z" fill="#262626" stroke="#262626" stroke-width=".09375"/>
<path d="m158.5 180.5c1.4-0.5 2.8-1 4.2-1.4-1 5.5-6.9 7.7-11.1 10.6-1.5-2.1-3-4.2-4.6-6.3 3.8-0.9 7.7-1.7 11.5-2.9z" fill="#3b3b3b" stroke="#3b3b3b" stroke-width=".09375"/>
<path d="m179.1 178.5c1.9 3.6 2.1 7.8 2 11.8-2.8-3.2-4.1-7.9-2-11.8z" fill="#6c6c6c" stroke="#6c6c6c" stroke-width=".09375"/>
<path d="m169.3 182.9c3 3.1 5.2 7 6.7 11.1-1.5 0.4-3.3 1.1-4.5-0.5-2.2-3-1.9-7.1-2.2-10.6z" fill="#696969" stroke="#696969" stroke-width=".09375"/>
<path d="m134.4 187.9c3.5-0.2 7-1 10.1-2.6l3 3.9c-1 1.4-1.8 3-3.3 3.9-2.7 1.1-5.6 1.3-8.5 1.7-1-0.5-2-1.1-3-1.6 0.6-1.8 1.1-3.5 1.7-5.3z" fill="#898989" stroke="#898989" stroke-width=".09375"/>
<path d="m37.7 185.7c0.4 1.6 0.7 3.3 1 4.9-2.3-0.3-4.7-0.7-7-1 1.7 5 4.4 9.7 8.5 13.2 8.3 7.2 18.1 13.3 29.1 14.7-2.5 0.5-5 0.8-7.5 1-7.3-1.7-15.1 2-22.1-1.7 1.2-0.3 2.4-0.7 3.5-0.9 2.7-0.1 5.5-0.2 8.2-0.4-3-2.4-6.7-3.2-10.5-2.9 1.5-0.3 3-0.7 4.6-1-4.1-3.5-9.7-2.5-14.6-3 3-0.9 5.9-1.7 8.9-2.6-1.4-1.2-2.5-3.5-4.7-2.9-4.9 0.7-8.7 4.2-12.5 7.1l13.5 4.2c-1.9 0-3.9 0.1-5.9 0.2-3.3-1.1-6.5-2.7-9.6-4.4 4.4-4 9.1-8.2 15.2-8.9-2.4-4.1-4.5-8.3-5.7-12.9 2.3 0.4 4.7 0.8 7 1.1 0.1-0.9 0.5-2.9 0.6-3.8z" fill="#404040" stroke="#404040" stroke-width=".09375"/>
<path d="m210 194.8c0.2-2.8 0.4-5.6 0.7-8.4 0.7 1.2 1.5 2.4 2.2 3.7-0.9 1.9-1.5 4-2 6l-7.2 3 0.1-0.9c2-1.2 4.1-2.3 6.2-3.4z" fill="#bbb" stroke="#bbb" stroke-width=".09375"/>
<path d="m31.7 189.6c2.3 0.3 4.7 0.7 7 1l0.8 0.1c5.2 1.8 10.5 3.1 15.7 4.6 4.4 1.5 8.7 3.3 12.4 6.1 3.6 2.6 6 6.4 9.1 9.4-0.4 1.5-0.8 3-1.4 4.5-1.7 1.3-3.9 1.8-6 2.2-11-1.4-20.8-7.5-29.1-14.7-4.1-3.5-6.8-8.2-8.5-13.2z" fill="#fbfbfb" stroke="#fbfbfb" stroke-width=".09375"/>
<path d="m210.9 196.1c8-3 16.5-4.6 24.9-6.2-4.1 12.2-15.9 18.9-26.3 25.2-5.4 1.7-11 2.5-16.6 2.4-0.8-2-1.6-4-2.5-6 3.8-4.8 7.5-9.9 13.3-12.4l7.2-3z" fill="#fcfcfc" stroke="#fcfcfc" stroke-width=".09375"/>
<path d="m76.8 196.1c2.7-1.8 5.4-3.5 8.2-5 1.3 0.9 2.6 1.7 3.8 2.7 4.7 5.5 8.6 12 9.4 19.3-2.5-1-5-1.7-7.6-2.5-1-0.7-2.1-1.4-3.1-2.2-2.3-5-7.4-7.9-10.7-12.3z" fill="#646464" stroke="#646464" stroke-width=".09375"/>
<path d="m107.8 191.7c4.7 2.7 8.1 7 12 10.6l0.6 0.5c-0.3 1.5-0.7 2.9-1 4.4-2.5-1.3-4.9-2.8-6.7-4.9-2.6-3-6.1-6.3-4.9-10.6z" fill="#949494" stroke="#949494" stroke-width=".09375"/>
<path d="m210.9 202.4c7.2-1.9 13.8-5.3 20-9.3-4.2 4.9-10.5 6.6-15.9 9.7 2 0.5 4.1 1.1 6.1 1.7-6 0-12.9-1.1-17.6 3.4 3.4 0.9 7 0.9 10.5 0.7-5.6 1.9-11.8-0.3-17.2 2.5 1 0.6 2 1.3 3.1 1.9-2.4 0.5-4.8 0.8-7.1 1.1 3.8-3.6 6.8-7.9 9.9-12.1-0.7 1.7-1.5 3.3-2.2 5 2.2-0.9 4.5-1.6 6.5-3 2.1-1.8 3.6-4.2 5.4-6.3-0.5 1.6-1 3.1-1.5 4.7z" fill="#333" stroke="#333" stroke-width=".09375"/>
<path d="m39 195.1c5.8 2.4 11.3 5.5 17.4 6.9-0.7-1.7-1.4-3.3-2.2-5 3.2 4.2 6.8 8.5 12.2 9.4-0.9-1.9-1.9-3.8-2.9-5.7 4.4 4 6.3 9.9 11.4 13.1-3.6-0.5-7.3-1-11-1.4 2.2-0.1 4.4-0.2 6.5-0.4-4.2-6.2-12.5 0.1-17.5-4.4 3.5 0.6 7.1 1 10.7 0.4-4-4.8-10.8-4.3-16.4-4.4 1.7-0.3 3.3-0.6 5-0.9-4.3-2.8-9.4-4.1-13.2-7.6z" fill="#343434" stroke="#343434" stroke-width=".09375"/>
<path d="m144.9 198c4.9 0 9.6-1.3 14.2-2.8-1 1.8-2.1 3.6-3.1 5.4-4.4 0.1-8.9 0.4-13.2 1 3.7 0.8 7.6 1 11.5 1.1-3.4 2.1-7.4 2.6-11.1 1.1-1.3-0.3-2.6-0.8-3.9-1.2 0.5 0.9 1 1.9 1.4 2.8-1.1-0.4-2.2-0.8-3.3-1.1-2.4-2.8-5.4-5.1-8.4-7.3 3.8 1.8 7.6 3.7 11.5 5.5v-2.5c2.9 0 5.8 0 8.7-0.1-1.5-0.6-2.9-1.3-4.3-1.9z" fill="#bcbcbc" stroke="#bcbcbc" stroke-width=".09375"/>
<path d="m163.1 196.2c1.8 1.1 3.7 2 5.2 3.6 1.6 2.4 1.5 5.4 1.9 8.2-1.4 0-2.7-0.1-4-0.1-0.5-3-1-6-1.6-8.9l-0.6 4.2c-1.1-1.4-2.1-2.8-3.2-4.2 0 0.5 0.1 1.6 0.1 2.1-1.4-2.2 0.9-3.5 2.2-4.9z" fill="#7e7e7e" stroke="#7e7e7e" stroke-width=".09375"/>
<path d="m160.8 199c1.1 1.4 2.1 2.8 3.2 4.2l0.6-4.2c0.6 2.9 1.1 5.9 1.6 8.9l-4.8 1.2c-0.2-2.7-0.4-5.3-0.5-8 0-0.5-0.1-1.6-0.1-2.1z" fill="#c7c7c7" stroke="#c7c7c7" stroke-width=".09375"/>
<path d="m142.8 201.6c4.3-0.6 8.8-0.9 13.2-1 0.2 2.4 0.4 4.9 0.5 7.3-0.2-1.2-0.3-2.5-0.4-3.7-2.1 1.3-4.2 2.6-6.3 3.7-3.7 0-7.4 0-11-1.1 1.1-0.1 2.1-0.3 3.1-0.5 0.4-0.8 0.9-1.6 1.3-2.5 3.7 1.5 7.7 1 11.1-1.1-3.9-0.1-7.8-0.3-11.5-1.1z" fill="#323232" stroke="#323232" stroke-width=".09375"/>
<path d="m22.6 210.2c3.8-2.9 7.6-6.4 12.5-7.1 2.2-0.6 3.3 1.7 4.7 2.9-3 0.9-5.9 1.7-8.9 2.6 4.9 0.5 10.5-0.5 14.6 3-1.6 0.3-3.1 0.7-4.6 1 3.8-0.3 7.5 0.5 10.5 2.9-2.7 0.2-5.5 0.3-8.2 0.4-2.4-0.4-4.7-1-7.1-1.5l-13.5-4.2z" fill="#f9f9f9" stroke="#f9f9f9" stroke-width=".09375"/>
<path d="m132.6 203.3c1.6 0.3 3.2 0.6 4.8 1 1.1 0.3 2.2 0.7 3.3 1.1-0.4-0.9-0.9-1.9-1.4-2.8 1.3 0.4 2.6 0.9 3.9 1.2-0.4 0.9-0.9 1.7-1.3 2.5-1 0.2-2 0.4-3.1 0.5-2.3-0.7-4.2-2.2-6.2-3.5z" fill="#939393" stroke="#939393" stroke-width=".09375"/>
<path d="m230.3 203c5.6-0.3 10.2 3.7 14 7.4-2.7 0.8-5.3 1.7-7.9 2.5-6.6 2.1-13.4 3.3-20.3 3 2.8-2 5.4-4.4 8.5-6 3.7-1.2 7.7-1.1 11.6-1.4-2.8-0.7-5.6-1.4-8.5-2.1 0.9-1.2 1.6-2.3 2.6-3.4z" fill="#f7f7f7" stroke="#f7f7f7" stroke-width=".09375"/>
<path d="m125.1 203.9c3.7 2 7.4 3.9 11.2 5.8-0.8 1.1-1.5 2.3-2.2 3.5-3.3-2.9-6.1-6.1-9-9.3z" fill="#474747" stroke="#474747" stroke-width=".09375"/>
<path d="m149.8 207.9c2.1-1.1 4.2-2.4 6.3-3.7 0.1 1.2 0.2 2.5 0.4 3.7-3.6 1.5-6.8 4.1-10.6 5.2-2.3-0.1-4.4-1.1-6.5-2 3.2-2.9 7.9-1.1 11.7-1.7-0.3-0.3-1-1.1-1.3-1.5z" fill="#a4a4a4" stroke="#a4a4a4" stroke-width=".09375"/>
<path d="m114 219.8c-2.5-4.2-4.5-8.6-6.3-13.2 4.7 4.2 9.5 8.4 13.5 13.3-2.4 0-4.8 0-7.2-0.1z" fill="#5b5b5b" stroke="#5b5b5b" stroke-width=".09375"/>
<path d="m90.6 210.6c2.6 0.8 5.1 1.5 7.6 2.5 0.9 0.7 1.7 1.5 2.6 2.3l-0.9 3.3c-2.3-3.5-5.7-6-9.3-8.1z" fill="#b4b4b4" stroke="#b4b4b4" stroke-width=".09375"/>
<path d="m150 215.7c6.4-3 13.1-6.5 20.4-5.9-2.4 2.2-5.2 3.8-7.7 5.8 0 0.7 0 1.5 0.1 2.2 0.3 0.5 0.9 1.6 1.1 2.1-2.2 0.1-4.5 0-6.7 0-2.5-1.3-4.9-2.8-7.2-4.2z" fill="#e4e4e4" stroke="#e4e4e4" stroke-width=".09375"/>
<path d="m76.7 210.8c1.2 0.9 2.3 1.8 3.5 2.7-2.8 1.8-5.3 4.1-8.5 5.2-3.3 1.1-6.7 0.2-9.9-0.2 2.5-0.2 5-0.5 7.5-1 2.1-0.4 4.3-0.9 6-2.2 0.6-1.5 1-3 1.4-4.5z" fill="#717171" stroke="#717171" stroke-width=".09375"/>
<path d="m182.8 219.5c-0.1-4.4 4.7-5.7 7.6-8 0.9 2 1.7 4 2.5 6l-1.1 0.1c4.1 1.2 8.4 1.6 12.6 1.7l-0.9 0.3c-6.9 0.8-13.8 0.4-20.7-0.1z" fill="#c6c6c6" stroke="#c6c6c6" stroke-width=".09375"/>
<path d="m216.1 215.9c6.9 0.3 13.7-0.9 20.3-3 0.4 0.2 1.1 0.6 1.5 0.7 5.2 2.7 11.7 1.8 16.5 5.7-0.6 0-1.6 0.1-2.2 0.1-5.1-1.9-10.6-3.9-16.2-3.6-4.4 0.6-8.5 2.6-13 2.7-6.2 0.4-12.6-1.6-18.6 0.8-4.2-0.1-8.5-0.5-12.6-1.7l1.1-0.1c5.6 0.1 11.2-0.7 16.6-2.4 2.2 0.3 4.4 0.7 6.6 0.8z" fill="#282828" stroke="#282828" stroke-width=".09375"/>
<path d="m71.7 218.7c3.2-1.1 5.7-3.4 8.5-5.2l0.6 0.4c-0.9 2-1.9 4-2.8 5.9-20.1 0-40.3 0.1-60.4-0.2 6.9-3 14.8-5.7 22.1-2.8 7 3.7 14.8 0 22.1 1.7 3.2 0.4 6.6 1.3 9.9 0.2z" fill="#fbfbfb" stroke="#fbfbfb" stroke-width=".09375"/>
<path d="m80.8 213.9c1.7 1.4 3.2 2.9 4.8 4.5-2.5 0.8-5 1.4-7.6 1.4 0.9-1.9 1.9-3.9 2.8-5.9z" fill="#b0b0b0" stroke="#b0b0b0" stroke-width=".09375"/>
<path d="m223 218.5c4.5-0.1 8.6-2.1 13-2.7 5.6-0.3 11.1 1.7 16.2 3.6-7.3 0.9-14.8 0.3-22.2 0.5-8.8-0.1-17.7 0.3-26.5-0.3l0.9-0.3c6-2.4 12.4-0.4 18.6-0.8z" fill="#f9f9f9" stroke="#f9f9f9" stroke-width=".09375"/>
</svg>
