<svg xmlns="http://www.w3.org/2000/svg" width="1548" height="1344"><linearGradient id="a" x1="1296.3" x2="1547.5" y1="1278.7" y2="1278.7" gradientUnits="userSpaceOnUse"><stop offset="0" stop-color="#0fd4d8"/><stop offset=".288" stop-color="#09b0b9"/><stop offset=".566" stop-color="#0495a1"/><stop offset=".812" stop-color="#018593"/><stop offset="1" stop-color="#007f8e"/></linearGradient><linearGradient id="b" x1="704.4" x2="438.7" y1="133" y2="989.2" gradientUnits="userSpaceOnUse"><stop offset="0" stop-color="#139fce" stop-opacity=".9"/><stop offset=".322" stop-color="#139ccb" stop-opacity=".93"/><stop offset=".58" stop-color="#1293c1" stop-opacity=".96"/><stop offset=".816" stop-color="#1083b0" stop-opacity=".98"/><stop offset="1" stop-color="#0e719d"/></linearGradient><linearGradient id="c" x1="7.3" x2="1015.4" y1="1242.5" y2="955.2" gradientUnits="userSpaceOnUse"><stop offset="0" stop-color="#337fc9"/><stop offset=".35" stop-color="#317cc6"/><stop offset=".631" stop-color="#2d72bd"/><stop offset=".888" stop-color="#2561af"/><stop offset="1" stop-color="#2057a6"/></linearGradient><linearGradient id="d" x1="1448" x2="719" y1="1294.5" y2="565.5" gradientUnits="userSpaceOnUse"><stop offset="0" stop-color="#0fd4d8"/><stop offset=".256" stop-color="#0ed1d5"/><stop offset=".462" stop-color="#0dc7cc"/><stop offset=".65" stop-color="#0ab6be"/><stop offset=".826" stop-color="#069ea9"/><stop offset=".996" stop-color="#00808f"/><stop offset="1" stop-color="#007f8e"/></linearGradient><linearGradient id="e" x1="49.8" x2="980.4" y1="1225.6" y2="967" gradientUnits="userSpaceOnUse"><stop offset="0" stop-color="#337fc9"/><stop offset=".3" stop-color="#3079c4"/><stop offset=".692" stop-color="#2869b6"/><stop offset="1" stop-color="#2057a6"/></linearGradient><linearGradient id="f" x1="688.6" x2="450.3" y1="80.8" y2="1008.8" gradientUnits="userSpaceOnUse"><stop offset="0" stop-color="#139fce" stop-opacity=".9"/><stop offset=".265" stop-color="#129ac8" stop-opacity=".93"/><stop offset=".611" stop-color="#118ab8" stop-opacity=".96"/><stop offset="1" stop-color="#0e719d"/></linearGradient><linearGradient id="g" x1="1447.4" x2="696.7" y1="1269.3" y2="554.1" gradientUnits="userSpaceOnUse"><stop offset="0" stop-color="#0fd4d8"/><stop offset=".188" stop-color="#0eced3"/><stop offset=".434" stop-color="#0bbec5"/><stop offset=".712" stop-color="#06a3ad"/><stop offset="1" stop-color="#007f8e"/></linearGradient><linearGradient id="h" x1="630.4" x2="782.5" y1="16.3" y2="190.1" gradientUnits="userSpaceOnUse"><stop offset="0" stop-color="#0e719d"/><stop offset=".389" stop-color="#118ab8" stop-opacity=".96"/><stop offset=".735" stop-color="#129ac8" stop-opacity=".93"/><stop offset="1" stop-color="#139fce" stop-opacity=".9"/></linearGradient><linearGradient id="i" x1=".2" x2="84.2" y1="1225.3" y2="1225.3" gradientUnits="userSpaceOnUse"><stop offset="0" stop-color="#337fc9"/><stop offset=".308" stop-color="#2b6db9"/><stop offset=".7" stop-color="#235dab"/><stop offset="1" stop-color="#2057a6"/></linearGradient><path fill="url(#a)" d="m1296.3 1281.4 234.7-18.9 14 15.5c6.1 6.7.9 17.4-8.1 16.9z"/><path fill="url(#b)" d="m619.6 30.4 161.6 160.4L560 974l-217.2 60.7z"/><path fill="url(#c)" d="m34 1336 50.3-228.7L891.1 881l175.1 173z"/><path fill="url(#d)" d="m717.8 418.2 813.1 844.3-234.6 18.9-643.8-636.1z"/><path fill="url(#e)" d="M84.3 1107.3 891.1 881l175.1 173z" opacity=".3"/><path fill="url(#f)" d="M619.6 30.4 560 974l-217.2 60.7z" opacity=".3"/><path fill="url(#g)" d="m717.8 418.2 578.5 863.2-643.8-636.1z" opacity=".3"/><path fill="url(#h)" d="M781.2 190.8 642.8 4.1c-5.2-6.9-16.1-4.7-18.1 3.7l-5.2 22.5z"/><path fill="url(#i)" d="M84.3 1107.3 34 1336l-20.4 6.9c-8.1 2.7-15.7-5.2-12.8-13.2z"/></svg>